<svg xmlns="http://www.w3.org/2000/svg" width="16" height="18" viewBox="0 0 16 18">
    <g fill="#FFF">
        <path d="M12.28 10.445c-1.972 0-3.571 1.599-3.571 3.571 0 1.973 1.599 3.572 3.571 3.572 1.973 0 3.572-1.6 3.572-3.572s-1.6-3.571-3.572-3.571zm0 5.714c-1.181 0-2.143-.961-2.143-2.143 0-1.181.962-2.143 2.143-2.143 1.182 0 2.143.962 2.143 2.143 0 1.182-.961 2.143-2.143 2.143z"/>
        <path d="M12.816 12.535h-1.071v1.704l1.355 1.344.754-.761-1.038-1.03v-1.257zM2.287 8.277h4.286v1.428H2.287V8.277z"/>
        <path d="M1.567 6.146h11.437V9.65h1.429V1.836c0-.78-.635-1.415-1.415-1.415h-.535c-.57 0-1.075.326-1.286.831-.112.267-.544.267-.656 0-.212-.505-.717-.831-1.287-.831H8.9c-.57 0-1.075.326-1.287.831-.112.267-.543.267-.656 0C6.745.747 6.24.421 5.671.421h-.34c-.57 0-1.076.326-1.288.831-.111.267-.543.267-.655 0C3.176.747 2.67.421 2.1.421h-.538C.781.42.147 1.056.147 1.836v15.726h7.836v-1.429H1.575l-.008-9.987zm.504-4.342c.278.666.924 1.096 1.645 1.096.72 0 1.366-.43 1.614-1.05l.31-.046c.278.666.924 1.096 1.645 1.096.72 0 1.367-.43 1.615-1.05l.324-.046c.278.666.924 1.096 1.645 1.096.72 0 1.366-.43 1.614-1.05l.521-.013v2.88H1.565L1.563 1.85l.508-.046z"/>
    </g>
</svg>
