<svg xmlns="http://www.w3.org/2000/svg" width="18" height="18" viewBox="0 0 18 18">
    <g fill="none">
        <path fill="#01A6D0" d="M16.594 3.375h-3.319v-.788c0-.956-.787-1.743-1.744-1.743H6.356c-.956 0-1.744.787-1.744 1.744v.787h-3.15c-.224 0-.45.169-.45.45 0 .225.17.45.45.45h1.07v11.137c0 .957.787 1.744 1.743 1.744h9.675c.956 0 1.744-.787 1.744-1.743V4.274h.9c.225 0 .45-.169.45-.45-.056-.225-.169-.45-.45-.45zM5.569 2.587c0-.45.394-.843.843-.843h5.176c.45 0 .843.394.843.843v.788H5.57v-.788zm9.225 12.657c0 .506-.282 1.012-.732 1.012H4.387c-.45 0-.956-.337-.956-.787l.056-11.194h11.307v10.969zm-8.325-8.55c-.282 0-.45.168-.45.45v6.018c0 .282.225.45.45.45s.45-.168.45-.45V7.144c-.056-.225-.169-.45-.45-.45zm2.812 0c-.281 0-.45.168-.45.45v6.018c0 .282.225.45.45.45s.45-.168.45-.45V7.144c-.056-.225-.168-.45-.45-.45zm2.813 0c-.281 0-.45.168-.45.45v6.018c0 .282.225.45.45.45s.45-.168.45-.45V7.144c-.056-.225-.169-.45-.45-.45z"/>
    </g>
</svg>
