<svg xmlns="http://www.w3.org/2000/svg" width="14" height="14" viewBox="0 0 14 14">
    <g fill="#01a6d0">
        <path d="M12.975 9.984h-.05c-.544 0-.984.441-.984.985v1.01H1.994v-1.01c0-.544-.44-.985-.985-.985-.554 0-1.009.455-1.009 1.01v1.556c0 .783.64 1.423 1.423 1.423h11.135c.783 0 1.423-.64 1.423-1.423v-1.556c.002-.555-.451-1.01-1.006-1.01z"/>
        <path d="M2.872 5.125c.389.39 1.025.39 1.414 0L6.03 3.381v5.624c0 .539.442.98.98.98.54 0 .982-.441.982-.98V3.403l1.72 1.72c.39.39 1.026.39 1.415 0 .389-.389.389-1.025 0-1.414L7.707.292C7.51.097 7.254 0 6.997 0c-.256 0-.512.097-.707.292L2.87 3.711c-.388.389-.388 1.025 0 1.414z"/>
    </g>
</svg>
