<svg xmlns="http://www.w3.org/2000/svg" width="14" height="14" viewBox="0 0 14 14">
    <g fill="#01A6D0">
        <path d="M12.975 9.984h-.05c-.544 0-.984.441-.984.985v1.01H1.994v-1.01c0-.544-.44-.985-.985-.985-.554 0-1.009.455-1.009 1.01v1.556c0 .783.64 1.423 1.423 1.423h11.135c.783 0 1.423-.64 1.423-1.423v-1.556c.002-.555-.451-1.01-1.006-1.01z"/>
        <path d="M2.872 4.86c.389-.388 1.025-.388 1.414 0L6.03 6.606V.98c0-.539.442-.981.98-.981.54 0 .982.442.982.981v5.602l1.72-1.72c.39-.39 1.026-.39 1.415 0 .389.389.389 1.024 0 1.414l-3.42 3.417c-.196.195-.452.292-.709.292-.256 0-.512-.097-.707-.292L2.87 6.275c-.388-.39-.388-1.025 0-1.414z"/>
    </g>
</svg>
