<svg xmlns="http://www.w3.org/2000/svg" width="28" height="28" viewBox="0 0 28 28">
    <g fill="none" fill-rule="evenodd">
        <path d="M0 0H28V28H0z"/>
        <g fill-rule="nonzero">
            <path fill="#E0EBFE" d="M15.625 16.25v1.875c0 .688-.563 1.25-1.25 1.25-.344 0-.656-.137-.881-.369-.232-.225-.369-.537-.369-.881V16.25h2.425c.025 0 .05 0 .075-.006v.006zm-8.75 0v1.875c0 .688-.563 1.25-1.25 1.25-.344 0-.656-.137-.881-.369-.231-.225-.369-.537-.369-.881V16.25h2.5zM4.063 13.75c0 .518.42.938.937.938.518 0 .938-.42.938-.938s-.42-.938-.938-.938-.938.42-.938.938zM14.063 13.75c0 .518.42.938.937.938.518 0 .938-.42.938-.938s-.42-.938-.938-.938-.938.42-.938.938zM15 6.719v3.906H5V6.719c0-.607.494-1.094 1.1-1.094h7.8c.606 0 1.1.487 1.1 1.094z" transform="translate(4 4)"/>
            <path fill="#FFF" d="M19.375 6.875H18.05v-3.75c0-1.379-1.121-2.5-2.5-2.5H4.3c-1.379 0-2.5 1.121-2.5 2.5v3.75H.625C.28 6.875 0 7.155 0 7.5v3.75c0 .345.28.625.625.625H1.8v2.5c.003 1.167.812 2.177 1.95 2.434v1.316c0 .507.197.979.546 1.317.35.36.822.558 1.329.558 1.034 0 1.875-.841 1.875-1.875v-1.25h5v1.25c0 .507.197.979.546 1.317.35.36.822.558 1.329.558 1.034 0 1.875-.841 1.875-1.875v-1.359c1.067-.305 1.802-1.281 1.8-2.391v-2.5h1.325c.345 0 .625-.28.625-.625V7.5c0-.345-.28-.625-.625-.625zM1.8 10.625h-.55v-2.5h.55v2.5zm4.45 7.5c0 .344-.28.625-.625.625-.169 0-.33-.069-.446-.191-.116-.115-.18-.271-.179-.434v-1.25h1.25v1.25zm8.75 0c0 .344-.28.625-.625.625-.169 0-.33-.069-.446-.191-.116-.115-.18-.271-.179-.434v-1.25H15v1.25zm1.8-3.75c0 .672-.526 1.219-1.198 1.244-.022 0-.043.003-.065.006H4.3c-.69 0-1.25-.56-1.25-1.25V12.5c0-.69.56-1.25 1.25-1.25h11.25c.689 0 1.25.56 1.25 1.25v1.875zM5.625 10V6.719c0-.259.213-.469.475-.469h7.8c.262 0 .475.21.475.469V10h-8.75zm11.175.348c-.357-.21-.761-.327-1.175-.34v-3.29C15.622 5.769 14.851 5 13.9 5H6.1c-.95 0-1.722.768-1.725 1.719V10H4.3c-.458 0-.881.133-1.25.348V3.125c0-.69.56-1.25 1.25-1.25h11.25c.689 0 1.25.56 1.25 1.25v7.223zm1.95.277h-.7v-2.5h.7v2.5z" transform="translate(4 4)"/>
            <path fill="#FFF" d="M5 12.5c-.69 0-1.25.56-1.25 1.25S4.31 15 5 15s1.25-.56 1.25-1.25S5.69 12.5 5 12.5zm0 1.875c-.334-.015-.598-.29-.598-.625s.264-.61.598-.625c.334.015.598.29.598.625s-.264.61-.598.625zM15 12.5c-.69 0-1.25.56-1.25 1.25S14.31 15 15 15s1.25-.56 1.25-1.25-.56-1.25-1.25-1.25zm0 1.875c-.334-.015-.598-.29-.598-.625s.264-.61.598-.625c.334.015.598.29.598.625s-.264.61-.598.625zm-2.813 0H7.814c-.173 0-.313.14-.313.313 0 .172.14.312.313.312h4.375c.172 0 .312-.14.312-.313 0-.172-.14-.312-.313-.312zm0-1.25H7.814c-.173 0-.313.14-.313.313 0 .172.14.312.313.312h4.375c.172 0 .312-.14.312-.313 0-.172-.14-.312-.313-.312zm0-1.25H7.814c-.173 0-.313.14-.313.313 0 .172.14.312.313.312h4.375c.172 0 .312-.14.312-.313 0-.172-.14-.312-.313-.312z" transform="translate(4 4)"/>
        </g>
    </g>
</svg>
