<svg xmlns="http://www.w3.org/2000/svg" width="48" height="48" viewBox="0 0 48 48">
    <g fill="none" fill-rule="evenodd">
        <circle cx="24" cy="24" r="24" fill="#01A6D0"/>
        <g fill="#FFF" fill-rule="nonzero">
            <path d="M15.588 8.336V6.58h-7.61v1.756h1.388c1.217.006 2.293.791 2.67 1.949H8.071v1.756h3.963c-.377 1.156-1.453 1.94-2.67 1.943H7.95v1.756h1.042l5.134 5.374 1.27-1.212-4.273-4.501c1.428-.583 2.467-1.846 2.763-3.36h1.756v-1.756h-1.756c-.138-.711-.443-1.38-.89-1.95h2.593z" transform="translate(12 11)"/>
            <path d="M21.22 9.893c1.47 4.348-.235 9.139-4.124 11.578-3.89 2.44-8.945 1.89-12.22-1.327C1.603 16.926.965 11.882 3.336 7.95c2.37-3.931 7.13-5.721 11.504-4.327l.539-1.674C10.566.412 5.312 2.143 2.358 6.24c-2.955 4.097-2.94 9.63.039 13.71 2.978 4.08 8.243 5.78 13.045 4.215 4.802-1.566 8.053-6.043 8.055-11.094.01-1.27-.187-2.534-.586-3.74l-1.691.562z" transform="translate(12 11)"/>
            <path d="M20.318 8.037L20.365 8.078 23.778 4.665 22.537 3.424 21.155 4.806 21.155 0.31 19.399 0.31 19.399 4.718 18.1 3.424 16.859 4.665 20.277 8.078z" transform="translate(12 11)"/>
        </g>
    </g>
</svg>
