<svg xmlns="http://www.w3.org/2000/svg" width="20" height="20" viewBox="0 0 20 20">
    <g fill="#AAB8D0">
        <path d="M10.001 11.139c.733 0 1.33-.596 1.33-1.33 0-.733-.597-1.329-1.33-1.329-.346 0-.658.134-.896.35L6.972 7.634c-.2-.112-.454-.041-.567.159-.112.2-.041.454.159.566l2.133 1.196c-.017.084-.025.167-.025.254 0 .734.596 1.33 1.329 1.33z"/>
        <path d="M.417 10.778h3.198c.23 0 .416-.186.416-.416 0-.23-.186-.417-.416-.417H.843C.949 7.592 1.95 5.473 3.509 3.906L5.052 5.45c.081.082.188.122.294.122.107 0 .214-.04.295-.122.163-.162.163-.426 0-.589L4.123 3.342C5.616 2.09 7.51 1.31 9.583 1.215v2.012c0 .23.187.417.417.417.23 0 .417-.187.417-.417V1.215c2.073.094 3.967.875 5.46 2.127L14.359 4.86c-.163.163-.163.427 0 .59.081.08.188.121.294.121.107 0 .214-.04.295-.122l1.543-1.543c1.558 1.567 2.56 3.686 2.666 6.039h-2.772c-.23 0-.417.186-.417.417 0 .23.187.416.417.416h3.198c.23 0 .417-.186.417-.416 0-5.514-4.486-10-10-10s-10 4.486-10 10c0 .23.186.416.417.416zM19.583 13.019H.417c-.23 0-.417.186-.417.416 0 .23.186.417.417.417h19.166c.23 0 .417-.186.417-.417 0-.23-.186-.416-.417-.416zM16.96 15.495H3.04c-.23 0-.417.187-.417.417 0 .23.186.417.417.417H16.96c.23 0 .417-.187.417-.417 0-.23-.187-.417-.417-.417zM14.391 17.972H5.608c-.23 0-.416.186-.416.416 0 .23.186.417.416.417h8.783c.23 0 .417-.186.417-.417 0-.23-.186-.416-.417-.416z"/>
    </g>
</svg>
