<svg xmlns="http://www.w3.org/2000/svg" width="48" height="48" viewBox="0 0 48 48">
    <g fill="none" fill-rule="evenodd">
        <circle cx="24" cy="24" r="24" fill="#01A6D0"/>
        <g fill="#FFF" fill-rule="nonzero">
            <path stroke="#FFF" stroke-width=".5" d="M20.431 8.261c-1.007 0-1.934.121-2.74.323v-1.25s0 0 0 0c0-1.813-2.74-3.224-6.287-3.224-3.546 0-6.286 1.41-6.286 3.224h0v4.836c-2.74.403-4.836 2.78-4.836 5.642 0 3.143 2.58 5.722 5.722 5.722 1.008 0 1.975-.282 2.821-.725 2.338.524 5.199.322 7.093-.685 1.128.604 2.74.967 4.513.967 3.506 0 6.287-1.41 6.287-3.224v-8.382s0 0 0 0c-.04-1.813-2.78-3.224-6.287-3.224zm-8.704 9.51c0-1.047-.323-2.175-.927-3.102 1.209.04 2.337-.04 3.345-.323v3.547c-.766.201-1.612.322-2.458.322 0-.121.04-.282.04-.443zm14.346-6.286c0 1.41-2.579 2.62-5.682 2.62-2.216 0-6.004-.927-5.642-2.821.282-1.774 3.829-2.418 5.642-2.418 3.103 0 5.682 1.209 5.682 2.62zm-14.669-6.77c3.063 0 5.683 1.209 5.683 2.62 0 2.055-4.514 2.74-6.69 2.538-1.531-.161-4.231-.766-4.594-2.257 0 0 0 0 0 0h0c-.04-.08-.04-.16-.04-.282 0-1.45 2.579-2.62 5.641-2.62zm-1.047 5.763c1.41.12 3.103 0 4.473-.444-.282.282-.524.645-.605 1.048-.08.363-.04.322-.04 2.7-1.209.322-2.579.403-3.828.282-1.129-1.29-2.821-2.015-4.393-1.974-.12-.202-.161-.403-.161-.605v-2.78c1.007 1.128 2.982 1.611 4.554 1.773zm-9.43 7.294c0-2.781 2.216-5.038 4.957-5.078 2.901-.08 5.238 2.257 5.238 5.078 0 .16 0 .322-.04.483v.08c-.282 2.58-2.498 4.555-5.078 4.555-2.82-.04-5.077-2.297-5.077-5.118zm14.386 3.909c-1.692.725-3.949.886-5.803.564 1.008-.806 1.814-2.015 2.096-3.426.887 0 1.733-.12 2.539-.322v1.29c0 .765.564 1.49 1.168 1.894zm10.8-1.854c0 1.41-2.579 2.62-5.682 2.62-1.894 0-5.682-.726-5.682-2.62v-2.78c1.008 1.087 3.144 1.813 5.682 1.813 2.54 0 4.675-.726 5.682-1.814v2.78zm0-6.972v2.78c0 1.411-2.579 2.62-5.682 2.62-3.062 0-5.682-1.209-5.682-2.62v-2.78c1.25 1.37 3.829 1.814 5.682 1.814 1.814 0 4.433-.444 5.682-1.814z" transform="translate(11 12)"/>
            <path d="M7.404 1.468L8.008 1.468 8.008 3.564 7.404 3.564z" transform="translate(11 12) rotate(144.458 7.706 2.516)"/>
            <path d="M11.082 0.322H12.082V2.418H11.082z" transform="translate(11 12)"/>
            <path d="M13.998 2.222L16.094 2.222 16.094 2.827 13.998 2.827z" transform="translate(11 12) rotate(125.542 15.046 2.525)"/>
            <path d="M8.217 16.616H6.942c-.072-.342-.237-.66-.48-.925h1.755c.191 0 .346-.145.346-.324 0-.178-.155-.323-.346-.323h-4.42c-.191 0-.346.145-.346.323 0 .18.155.324.346.324h1.192c.587.016 1.093.393 1.24.925H3.798c-.191 0-.346.145-.346.324 0 .178.155.323.346.323h2.458c-.173.612-.948 1.078-1.264 1.078h-.885c-.137.001-.261.078-.316.195-.054.118-.029.255.064.349l2.876 2.872c.065.066.157.104.254.104.086-.001.168-.033.23-.089.068-.058.108-.14.11-.225.004-.086-.03-.17-.094-.232l-2.324-2.32h.083c.708 0 1.803-.77 1.97-1.726h1.258c.191 0 .346-.144.346-.323 0-.179-.155-.324-.346-.324v-.006z" transform="translate(11 12)"/>
        </g>
    </g>
</svg>
