<svg xmlns="http://www.w3.org/2000/svg" width="19" height="19" viewBox="0 0 19 19">
    <path fill="#AAB8D0" d="M18.044 7.528l-1.82-.364c-.091-.263-.199-.518-.318-.765l1.03-1.546c.314-.471.252-1.099-.148-1.498l-1.143-1.142c-.23-.23-.533-.348-.84-.348-.227 0-.457.065-.657.199l-1.546 1.03c-.249-.12-.504-.227-.767-.318l-.364-1.82C11.36.4 10.872.001 10.306.001H8.692c-.566 0-1.054.4-1.165.955l-.364 1.82c-.263.091-.518.198-.765.318l-1.546-1.03c-.201-.134-.43-.2-.658-.2-.307 0-.61.119-.84.349L2.212 3.355c-.4.4-.462 1.027-.149 1.498l1.03 1.546c-.12.247-.226.502-.318.766l-1.82.364C.4 7.639 0 8.127 0 8.693v1.615c0 .566.4 1.053.955 1.164l1.82.365c.091.263.198.518.318.765l-1.03 1.547c-.314.47-.251 1.098.149 1.497l1.142 1.143c.23.23.533.348.84.348.228 0 .458-.066.658-.2l1.546-1.03c.248.12.503.227.766.318l.364 1.82c.111.555.599.955 1.164.955h1.615c.566 0 1.054-.4 1.164-.955l.366-1.82c.263-.091.518-.199.765-.318l1.546 1.03c.2.134.43.2.657.2.308 0 .611-.119.841-.348l1.142-1.143c.4-.4.463-1.027.149-1.497l-1.03-1.547c.12-.248.227-.503.318-.766l1.82-.364c.555-.11.955-.598.955-1.164V8.693c0-.566-.4-1.053-.955-1.164h-.001zm-2.053 3.144c-.412.082-.75.377-.888.775-.077.219-.165.431-.265.637-.185.38-.153.827.08 1.177l1.031 1.546-1.142 1.142-1.546-1.03c-.199-.132-.428-.2-.659-.2-.176 0-.353.04-.517.118-.207.1-.419.19-.639.267-.396.138-.69.476-.773.888l-.365 1.82H8.693l-.364-1.82c-.083-.412-.377-.75-.775-.888-.219-.077-.432-.165-.638-.265-.164-.08-.34-.12-.518-.12-.23 0-.46.068-.658.2L4.194 15.95 3.05 14.808l1.03-1.546c.234-.35.264-.798.082-1.176-.1-.207-.19-.419-.266-.639-.138-.396-.476-.69-.889-.773l-1.82-.365V8.693l1.82-.364c.412-.083.75-.377.888-.774.077-.22.165-.432.266-.639.184-.379.153-.826-.081-1.176L3.05 4.194l1.142-1.142 1.546 1.03c.199.132.428.2.659.2.176 0 .353-.04.517-.119.206-.1.419-.189.638-.266.397-.138.692-.476.775-.888l.364-1.82h1.615l.364 1.82c.082.412.377.75.775.889.219.076.431.165.637.265.165.08.341.119.519.119.23 0 .46-.067.658-.2l1.546-1.03 1.142 1.142-1.03 1.547c-.234.35-.264.797-.082 1.175.1.206.19.419.267.639.137.397.476.691.888.774l1.82.364.001 1.615-1.82.365v-.001zM9.5 5.344c-2.295 0-4.156 1.861-4.156 4.156s1.86 4.156 4.156 4.156c2.295 0 4.156-1.861 4.156-4.156S11.795 5.344 9.5 5.344zm0 7.793c-2.008 0-3.636-1.63-3.636-3.637S7.492 5.864 9.5 5.864c2.007 0 3.636 1.629 3.636 3.636 0 2.008-1.63 3.637-3.636 3.637zm0-6.012c-1.312 0-2.375 1.063-2.375 2.375s1.063 2.375 2.375 2.375c1.311 0 2.375-1.063 2.375-2.375S10.81 7.125 9.5 7.125zm0 4.157c-.984 0-1.781-.798-1.781-1.782 0-.983.797-1.78 1.78-1.78.984 0 1.782.797 1.782 1.78s-.798 1.782-1.781 1.782z"/>
</svg>
