<svg xmlns="http://www.w3.org/2000/svg" width="48" height="48" viewBox="0 0 48 48">
    <g fill="none" fill-rule="evenodd">
        <circle cx="24" cy="24" r="24" fill="#01A6D0"/>
        <g fill="#FFF" fill-rule="nonzero">
            <path stroke="#FFF" stroke-width=".5" d="M19.933 18.543V13c-.005-2.9-1.813-5.492-4.534-6.497l1.464-3.293c.052-.117.05-.25-.007-.366-.056-.115-.16-.2-.284-.23l-.934-.234c-.616-.153-1.267-.082-1.835.202-.25.124-.524.188-.803.189v.866c.413 0 .82-.097 1.19-.28.383-.192.821-.24 1.237-.137l.433.109-1.3 2.922c-.511-.12-1.035-.183-1.56-.184v.866c3.349.004 6.063 2.718 6.067 6.067v5.373c-1.1-.119-2.21.102-3.179.634l-.11.06h-3.211c-.54 0-1.05.251-1.377.68-.328.429-.437.986-.296 1.507l-3.497-1.603c-.148-.064-.304-.107-.464-.126V13c0-.547.072-1.09.217-1.618l-.835-.231c-.166.602-.25 1.224-.248 1.849v6.64c-.403.168-.72.492-.882.897-.304.755-.013 1.62.687 2.037l4.988 2.993c.47.283 1.01.433 1.56.433H26v-.867h-3.9v-4.766H26V19.5h-4.186c-.558-.44-1.197-.764-1.88-.957zm-8.627 6.283l-4.988-2.994c-.335-.2-.474-.612-.328-.973.118-.295.404-.49.723-.49.112 0 .222.025.323.071l4.484 2.054c.056.026.118.04.18.04h4.333c.24 0 .434-.195.434-.434 0-.24-.194-.433-.434-.433h-3.466c-.479 0-.867-.388-.867-.867s.388-.867.867-.867h3.322c.073 0 .144-.018.208-.053l.206-.112c1.572-.866 3.507-.719 4.93.374v4.991H12.42c-.392 0-.778-.107-1.114-.309v.002z" transform="translate(10 11)"/>
            <path d="M22.967 23.4H23.967V24.4H22.967zM15.217 11.616h-1.275c-.072-.342-.237-.66-.48-.925h1.755c.191 0 .346-.145.346-.324 0-.178-.155-.323-.346-.323h-4.42c-.191 0-.346.145-.346.323 0 .18.155.324.346.324h1.192c.587.016 1.093.393 1.24.925h-2.432c-.191 0-.346.145-.346.324 0 .178.155.323.346.323h2.458c-.173.612-.948 1.078-1.264 1.078h-.885c-.137.001-.261.078-.316.195-.054.118-.029.255.064.349l2.876 2.872c.065.066.157.104.254.104.086-.001.168-.033.23-.089.068-.058.108-.14.11-.225.004-.086-.03-.17-.094-.232l-2.324-2.32h.083c.708 0 1.803-.77 1.97-1.726h1.258c.191 0 .346-.144.346-.323 0-.179-.155-.324-.346-.324v-.006zM5.056 8.667l3.35 2.513c.142.106.334.115.486.023.15-.091.23-.266.202-.44l-.349-2.096h1.222c1.196-.002 2.165-.971 2.166-2.167V2.167C12.132.97 11.163 0 9.967 0h-7.8C.97.001 0 .97 0 2.167V6.5c.001 1.196.97 2.165 2.167 2.167h2.889zM.866 6.5V2.167c0-.718.583-1.3 1.3-1.3h7.8c.719 0 1.3.582 1.3 1.3V6.5c0 .718-.581 1.3-1.3 1.3H8.234c-.127 0-.248.056-.33.153-.082.097-.118.226-.097.351l.254 1.533-2.6-1.95C5.385 7.83 5.294 7.8 5.2 7.8H2.167c-.718 0-1.3-.582-1.3-1.3z" transform="translate(10 11)"/>
            <path d="M3.003 3.9L9.131 3.9 9.131 4.766 3.003 4.766z" transform="translate(10 11) rotate(-45 6.067 4.333)"/>
            <path d="M3.9 4.333c.718 0 1.3-.582 1.3-1.3 0-.718-.582-1.3-1.3-1.3-.718 0-1.3.582-1.3 1.3 0 .718.582 1.3 1.3 1.3zm0-1.733c.24 0 .433.194.433.433 0 .24-.194.434-.433.434-.24 0-.433-.194-.433-.434 0-.239.194-.433.433-.433zM6.933 5.633c0 .718.582 1.3 1.3 1.3.718 0 1.3-.582 1.3-1.3 0-.718-.582-1.3-1.3-1.3-.718 0-1.3.582-1.3 1.3zm1.734 0c0 .24-.194.434-.434.434-.239 0-.433-.194-.433-.434 0-.239.194-.433.433-.433.24 0 .434.194.434.433z" transform="translate(10 11)"/>
        </g>
    </g>
</svg>
