<svg xmlns="http://www.w3.org/2000/svg" width="22" height="21" viewBox="0 0 22 21">
    <g fill="none">
        <g>
            <path fill="#01A6D0" d="M5.052 7.924c-.154.16-.152.413.005.57.156.157.41.159.57.005l-.575-.575zM7.78 5.77l-.288-.287.287.287zm-5.446-.874c-.105.102-.148.253-.11.395.037.142.147.253.29.29.142.038.293-.005.395-.11l-.575-.575zm3.723-3.148l.287.287-.287-.287zm-.312 8.93l-.288-.287.288.287zM2.873 7.806l-.286-.29-.001.002.287.287zm3.49-3.453l.286.288.002-.001-.287-.287zm-3.49 6.325l.287-.287-.287.287zm2.754-2.18l2.441-2.44-.574-.575-2.442 2.441.575.575zM2.91 5.472l3.435-3.436-.575-.574-3.435 3.435.575.575zm3.123 5.494l4.62-4.62-.574-.575-4.62 4.62.574.575zm-2.874-2.87l3.49-3.454-.571-.577-3.49 3.453.57.577zM6.65 4.64c.248-.248.615-.247.843-.02l.574-.574c-.565-.565-1.447-.526-1.992.019l.574.575zm.843-.02c.114.115.178.27.178.432 0 .161-.064.316-.178.43l.575.575c.266-.266.416-.628.416-1.005 0-.377-.15-.74-.416-1.006l-.575.575zm-1.15-2.585c1.032-1.03 2.703-1.03 3.735 0l.574-.574C10.006.813 9.128.449 8.212.449c-.916 0-1.794.364-2.442 1.012l.574.574zm3.735 0c.495.496.773 1.167.773 1.868 0 .7-.278 1.372-.773 1.867l.574.574c1.349-1.348 1.349-3.534 0-4.883l-.574.574zm-4.621 8.356c-.305.304-.718.476-1.15.476-.43 0-.843-.172-1.148-.476l-.575.574c.952.952 2.496.952 3.447 0l-.574-.574zm-2.298 0c-.305-.305-.476-.718-.476-1.15 0-.43.171-.844.476-1.149l-.575-.574c-.951.952-.951 2.495 0 3.447l.575-.574z" transform="translate(1 1) translate(8 1)"/>
        </g>
        <g fill="#01A6D0">
            <path stroke="#01A6D0" stroke-width=".5" d="M14.222 10.963v6.518c0 .819-.663 1.482-1.481 1.482H1.48C.663 18.963 0 18.3 0 17.481v-16C0 .663.663 0 1.481 0h11.26c.818 0 1.481.663 1.481 1.481v1.186c0 .163-.132.296-.296.296-.164 0-.296-.133-.296-.296V1.48c0-.49-.398-.888-.89-.888H1.482c-.49 0-.888.398-.888.888v16c0 .491.398.89.888.89h11.26c.49 0 .889-.399.889-.89v-6.518c0-.164.132-.296.296-.296.164 0 .296.132.296.296z" transform="translate(1 1)"/>
            <g>
                <path d="M8.341 6.419H8.31c-.35 0-.633.283-.633.632v.65H1.282v-.65c0-.35-.284-.632-.633-.632-.357 0-.649.292-.649.648v1c0 .504.412.916.915.916h7.158c.503 0 .915-.412.915-.915v-1c.001-.357-.29-.65-.647-.65z" transform="translate(1 1) translate(2 7)"/>
                <path d="M1.846 3.125c.25-.25.66-.25.91 0l1.12 1.12V.632c0-.347.284-.631.631-.631.347 0 .63.284.63.63v3.602l1.107-1.106c.25-.25.659-.25.909 0s.25.659 0 .909L4.954 6.232c-.126.125-.29.188-.455.188-.165 0-.33-.063-.455-.188L1.846 4.034c-.25-.25-.25-.659 0-.91z" transform="translate(1 1) translate(2 7)"/>
            </g>
        </g>
    </g>
</svg>
