<svg xmlns="http://www.w3.org/2000/svg" width="18" height="18" viewBox="0 0 18 18">
    <g fill="none">
        <path fill="#01A6D0" d="M15.365 1.814c.146-.151.362-.212.565-.159.203.053.362.212.415.415.053.203-.008.42-.159.565L7.97 10.852c-.227.227-.595.227-.822 0-.227-.227-.227-.595 0-.822l8.217-8.216zm-.17 6.027c0-.32.26-.58.58-.58.321 0 .581.26.581.58v6.392c0 1.177-.953 2.13-2.13 2.13H3.766c-1.176 0-2.13-.953-2.13-2.13V3.774c0-1.177.954-2.13 2.13-2.13h6.199c.32 0 .58.26.58.58 0 .321-.26.582-.58.582H3.767c-.535 0-.969.433-.969.968v10.46c0 .534.434.968.969.968h10.459c.535 0 .968-.434.968-.969V7.841z"/>
    </g>
</svg>
