<svg xmlns="http://www.w3.org/2000/svg" width="18" height="18" viewBox="0 0 18 18">
    <g fill="none">
        <path fill="#01A6D0" d="M15.75 4.5h-1.5V.75c0-.414-.336-.75-.75-.75h-9c-.414 0-.75.336-.75.75V4.5h-1.5C1.007 4.5 0 5.507 0 6.75v6C0 13.993 1.007 15 2.25 15h1.5v2.25c0 .414.336.75.75.75h9c.414 0 .75-.336.75-.75V15h1.5c1.243 0 2.25-1.007 2.25-2.25v-6c0-1.243-1.007-2.25-2.25-2.25zm-10.5-3h7.5v3h-7.5v-3zm7.5 15h-7.5V12h7.5v4.5zm3.75-3.75c0 .414-.336.75-.75.75h-1.5v-2.25c0-.414-.336-.75-.75-.75h-9c-.414 0-.75.336-.75.75v2.25h-1.5c-.414 0-.75-.336-.75-.75v-6c0-.414.336-.75.75-.75h13.5c.414 0 .75.336.75.75v6z"/>
        <circle cx="3.462" cy="8.308" r="1" fill="#000"/>
    </g>
</svg>
