<svg xmlns="http://www.w3.org/2000/svg" width="48" height="48" viewBox="0 0 48 48">
    <g fill="none" fill-rule="evenodd">
        <circle cx="24" cy="24" r="24" fill="#01A6D0"/>
        <path fill="#FFF" fill-rule="nonzero" d="M31.646 32.226c-1.543 0-2.872-1.113-3.159-2.585v.072h-8.651c-.323 1.436-1.615 2.513-3.16 2.513-1.543 0-2.835-1.077-3.158-2.513h-3.374V21.564h16.153v-5.277h7.18c1.185 0 2.226.718 2.656 1.795l1.616 3.949c.036.072.036.18.036.287V29.785h-3.016c-.287 1.364-1.58 2.44-3.123 2.44zm0-1.436c1.005 0 1.795-.79 1.795-1.795s-.79-1.795-1.795-1.795-1.795.79-1.795 1.795.826 1.795 1.795 1.795zm-14.933 0c1.005 0 1.795-.79 1.795-1.795s-.79-1.795-1.795-1.795-1.795.79-1.795 1.795.79 1.795 1.795 1.795zM11.615 23v5.313h1.939c.323-1.436 1.615-2.513 3.159-2.513 1.543 0 2.836 1.077 3.159 2.513h6.461V23H11.615zm23.226-4.38c-.215-.538-.754-.897-1.328-.897h-5.744v3.841h8.257l-1.185-2.943zM36.385 23h-8.616v5.313h.718v.072c.287-1.472 1.616-2.585 3.16-2.585 1.543 0 2.835 1.077 3.158 2.513h1.58V23z"/>
    </g>
</svg>
