<svg xmlns="http://www.w3.org/2000/svg" width="17" height="21" viewBox="0 0 17 21">
    <g fill="#FFF">
        <path d="M13.246 8.188h-1.927c-.109-.517-.358-.998-.725-1.398h2.652c.288 0 .522-.219.522-.489s-.234-.488-.522-.488H6.567c-.289 0-.523.218-.523.488s.234.49.523.49h1.801c.888.023 1.652.593 1.875 1.397H6.567c-.289 0-.523.219-.523.488 0 .27.234.49.523.49h3.714c-.261.924-1.432 1.628-1.91 1.628H7.035c-.207.001-.394.117-.476.295-.083.178-.045.384.096.526L11 15.955c.098.1.237.156.383.156.13-.001.254-.05.348-.133.102-.089.162-.211.167-.341.004-.13-.047-.256-.142-.35L8.243 11.78h.125c1.07 0 2.725-1.163 2.975-2.606h1.903c.288 0 .522-.219.522-.489s-.234-.488-.522-.488v-.01z" transform="translate(1 1)"/>
        <path stroke="#FFF" d="M2.264 6.37c.604 0 1.208-.03 1.781-.242.725-.271 1.298-.845 1.6-1.54.272-.633.242-1.358.212-2.082 0-.212-.03-.393-.03-.574 0-.09-.061-.15-.152-.15-.09 0-.12.03-.12.12 0 .181 0 .392.03.604.03.694.06 1.388-.211 1.962-.272.634-.816 1.117-1.45 1.358-.633.242-1.388.242-2.113.212H1.39c-.09 0-.151.06-.151.15 0 .091.06.152.15.152h.423c.151 0 .302.03.453.03z" transform="translate(1 1)"/>
        <path stroke="#FFF" stroke-width=".3" d="M0 6.219v9.087c0 2.173 1.75 3.924 3.925 3.924h7.879c2.173 0 3.924-1.75 3.924-3.924V4.016c0-2.174-1.75-3.925-3.924-3.925H6.068c-.453 0-.906.18-1.208.483L.604 4.77C.21 5.162 0 5.675 0 6.219zm.755 0c0-.332.15-.664.392-.906l4.257-4.196c.18-.181.422-.272.694-.272h5.706c1.75 0 3.17 1.42 3.17 3.17v11.29c0 1.752-1.42 3.17-3.17 3.17h-7.88c-1.75 0-3.17-1.418-3.17-3.17V6.22z" transform="translate(1 1)"/>
    </g>
</svg>
