<svg xmlns="http://www.w3.org/2000/svg" width="16" height="16" viewBox="0 0 16 16">
    <g fill="none" fill-rule="evenodd" opacity=".65">
        <path d="M0 0H16V16H0z"/>
        <path fill="#000" fill-rule="nonzero" d="M13.968 1.905h-1.905V1.46c0-.316-.255-.571-.57-.571-.317 0-.572.255-.572.571v.445H5.079V1.46c0-.316-.255-.571-.571-.571-.316 0-.571.255-.571.571v.445H2.032c-.632 0-1.143.51-1.143 1.143v10.92c0 .632.511 1.143 1.143 1.143h11.936c.632 0 1.143-.513 1.143-1.143V3.048c0-.632-.511-1.143-1.143-1.143zM2.032 3.048h1.905v.317c0 .316.255.572.57.572.317 0 .572-.256.572-.572v-.317h5.842v.317c0 .316.255.572.571.572.316 0 .571-.256.571-.572v-.317h1.905v1.777H2.032V3.048zm11.936 10.92H2.032v-8h11.936v8zM4.444 8H5.46c.281 0 .508.227.508.508 0 .28-.227.508-.508.508H4.444c-.28 0-.507-.227-.507-.508S4.163 8 4.444 8zm3.048 0h1.016c.28 0 .508.227.508.508 0 .28-.227.508-.508.508H7.492c-.28 0-.508-.227-.508-.508S7.211 8 7.492 8zm3.048 0h1.016c.28 0 .507.227.507.508 0 .28-.226.508-.507.508H10.54c-.281 0-.508-.227-.508-.508S10.259 8 10.54 8zm-6.096 3.08H5.46c.281 0 .508.226.508.507s-.227.508-.508.508H4.444c-.28 0-.507-.227-.507-.508 0-.28.226-.508.507-.508zm3.048 0h1.016c.28 0 .508.226.508.507s-.227.508-.508.508H7.492c-.28 0-.508-.227-.508-.508 0-.28.227-.508.508-.508z"/>
    </g>
</svg>
