<svg xmlns="http://www.w3.org/2000/svg" width="28" height="17" viewBox="0 0 28 17">
    <path fill="#AAB8D0" d="M6.354 16.226c1.543 0 2.872-1.113 3.159-2.585v.072h8.651c.323 1.436 1.615 2.513 3.16 2.513 1.543 0 2.835-1.077 3.158-2.513h3.374V5.564H11.703V.287h-7.18c-1.185 0-2.226.718-2.656 1.795L.25 6.031c-.036.072-.036.18-.036.287V13.785h3.016c.287 1.364 1.58 2.44 3.123 2.44zm0-1.436c-1.005 0-1.795-.79-1.795-1.795s.79-1.795 1.795-1.795 1.795.79 1.795 1.795-.826 1.795-1.795 1.795zm14.933 0c-1.005 0-1.795-.79-1.795-1.795s.79-1.795 1.795-1.795 1.795.79 1.795 1.795-.79 1.795-1.795 1.795zM26.385 7v5.313h-1.939c-.323-1.436-1.615-2.513-3.159-2.513-1.543 0-2.836 1.077-3.159 2.513h-6.461V7h14.718zM3.159 2.62c.215-.538.754-.897 1.328-.897h5.744v3.841H1.974L3.16 2.621zM1.615 7h8.616v5.313h-.718v.072C9.226 10.913 7.897 9.8 6.353 9.8c-1.543 0-2.835 1.077-3.158 2.513h-1.58V7z"/>
</svg>
