<svg xmlns="http://www.w3.org/2000/svg" width="28" height="17" viewBox="0 0 28 17">
    <path fill="#AAB8D0" d="M21.646 16.226c-1.543 0-2.872-1.113-3.159-2.585v.072H9.836c-.323 1.436-1.615 2.513-3.16 2.513-1.543 0-2.835-1.077-3.158-2.513H.144V5.564h16.153V.287h7.18c1.185 0 2.226.718 2.656 1.795l1.616 3.949c.036.072.036.18.036.287V13.785h-3.016c-.287 1.364-1.58 2.44-3.123 2.44zm0-1.436c1.005 0 1.795-.79 1.795-1.795s-.79-1.795-1.795-1.795-1.795.79-1.795 1.795.826 1.795 1.795 1.795zm-14.933 0c1.005 0 1.795-.79 1.795-1.795S7.718 11.2 6.713 11.2s-1.795.79-1.795 1.795.79 1.795 1.795 1.795zM1.615 7v5.313h1.939C3.877 10.877 5.169 9.8 6.713 9.8c1.543 0 2.836 1.077 3.159 2.513h6.461V7H1.615zm23.226-4.38c-.215-.538-.754-.897-1.328-.897h-5.744v3.841h8.257L24.84 2.621zM26.385 7h-8.616v5.313h.718v.072c.287-1.472 1.616-2.585 3.16-2.585 1.543 0 2.835 1.077 3.158 2.513h1.58V7z"/>
</svg>
